# xmcd
#
# Track frame offsets: 
#        150
#        8852
#        19600
#        29458
#        39620
#        48597
#        58025
#        68623
#        80314
#        93761
#        104654
#        117060
#        129379
#        143009
#        153639
#        163877
#        174048
#        184364
#        195538
#        205152
#        222495
#        235121
#        250047
#        259641
#        269997
#        287700
#        297987
#        309318
#        321444
#        333964
#        346570
#
# Disc length: 4764 seconds
#
# Revision: 1
# Processed by: cddbd v1.5.2PL0 Copyright (c) Steve Scherf et al.
# Submitted via: ExactAudioCopy v1.0b1
#
DISCID=c1129a1f
DTITLE=The Coasters - There's A Riot Goin' On: The Coasters On Atco (D
DTITLE=isc 2)
DYEAR=2007
DGENRE=R&B
TTITLE0=Yakety Yak (stereo)
TTITLE1=Stewball (stereo)
TTITLE2=Sorry But I'm Gonna Have To Pass (stereo)
TTITLE3=The Shadow Knows (stereo)
TTITLE4=I'm A Hog For You (mono)
TTITLE5=Crocodile (stereo)
TTITLE6=Charlie Brown (stereo)
TTITLE7=Hey Sexy (stereo)
TTITLE8=Along Came Jones (mono)
TTITLE9=That Is Rock and Roll (mono)
TTITLE10=What About Us (mono)
TTITLE11=Poison Ivy (mono)
TTITLE12=Run Red Run (mono)
TTITLE13=Keep On Rolling (mono)
TTITLE14=Besame Mucho (Part 1) (mono)
TTITLE15=Besame Mucho (Part 2) (mono)
TTITLE16=The Snake And The Book Worm (mono)
TTITLE17=Wake Me, Shake Me (mono)
TTITLE18=Lady Like (mono)
TTITLE19=Easy Living (stereo)
TTITLE20=Don't Get Around Much Anymore (stereo)
TTITLE21=Moonlight In Vermont (stereo)
TTITLE22=Moonglow (stereo)
TTITLE23=You'd Be So Nice To Come Home To (stereo)
TTITLE24=Autumn Leaves (stereo)
TTITLE25=Gee Baby Ain't I Good To You (stereo)
TTITLE26=Satin Doll (stereo)
TTITLE27=The Way You Look Tonight (stereo)
TTITLE28=Willow Weep For Me (stereo)
TTITLE29=But Beautiful (stereo)
TTITLE30=On The Sunny Side Of The Street (stereo)
EXTD=
EXTT0=
EXTT1=
EXTT2=
EXTT3=
EXTT4=
EXTT5=
EXTT6=
EXTT7=
EXTT8=
EXTT9=
EXTT10=
EXTT11=
EXTT12=
EXTT13=
EXTT14=
EXTT15=
EXTT16=
EXTT17=
EXTT18=
EXTT19=
EXTT20=
EXTT21=
EXTT22=
EXTT23=
EXTT24=
EXTT25=
EXTT26=
EXTT27=
EXTT28=
EXTT29=
EXTT30=
PLAYORDER=
